<svg width="512" height="512" viewBox="0 0 512 512" fill="none" xmlns="http://www.w3.org/2000/svg">

<path d="M384 234.667C384 152.193 317.141 85.3332 234.667 85.333C152.192 85.333 85.333 152.192 85.333 234.667C85.3332 317.141 152.193 384 234.667 384C317.141 384 384 317.141 384 234.667ZM426.667 234.667C426.667 340.705 340.705 426.667 234.667 426.667C128.628 426.667 42.6672 340.706 42.667 234.667C42.667 128.628 128.628 42.667 234.667 42.667C340.706 42.6672 426.667 128.628 426.667 234.667Z" fill="white"/>
<path d="M341.186 341.181C349.517 332.85 363.025 332.85 371.356 341.181L463.089 432.914C471.42 441.245 471.42 454.753 463.089 463.084C454.758 471.415 441.25 471.415 432.919 463.084L341.186 371.351C332.855 363.019 332.855 349.512 341.186 341.181Z" fill="#FF01FF"/>
<path d="M213.333 234.666C213.334 222.885 222.885 213.334 234.667 213.333C246.448 213.333 256 222.884 256 234.666C256 240.324 258.248 245.751 262.249 249.751C266.249 253.752 271.676 256 277.333 256C282.991 256 288.418 253.752 292.418 249.751C296.419 245.751 298.667 240.324 298.667 234.666C298.666 217.693 291.924 201.414 279.921 189.411C267.919 177.409 251.64 170.666 234.667 170.666C217.693 170.666 201.414 177.409 189.412 189.411C177.409 201.414 170.667 217.693 170.667 234.666C170.667 262.956 181.905 290.087 201.909 310.091C221.913 330.095 249.044 341.333 277.333 341.333C305.623 341.333 332.754 330.095 352.758 310.091C372.762 290.087 384 262.957 384 234.667C384 222.885 393.552 213.333 405.333 213.333C417.115 213.333 426.667 222.885 426.667 234.667C426.667 274.273 410.934 312.256 382.928 340.261C354.923 368.267 316.939 384 277.333 384C237.728 384 199.744 368.267 171.739 340.261C143.733 312.256 128 274.272 128 234.666C128.001 206.377 139.238 179.245 159.242 159.242C179.246 139.238 206.377 128 234.667 128C262.956 128 290.087 139.238 310.091 159.242C330.095 179.245 341.333 206.377 341.333 234.666C341.333 251.64 334.591 267.919 322.588 279.921C310.586 291.924 294.307 298.666 277.333 298.666C260.36 298.666 244.081 291.924 232.079 279.921C220.076 267.919 213.333 251.64 213.333 234.666Z" fill="#FF01FF"/>
</svg>
